<?xml version="1.0" encoding="UTF-8"?> <!-- Generator: Adobe Illustrator 19.0.0, SVG Export Plug-In . SVG Version: 6.00 Build 0) --> <svg xmlns="http://www.w3.org/2000/svg" xmlns:xlink="http://www.w3.org/1999/xlink" id="Layer_1" x="0px" y="0px" viewBox="0 0 197.6 197.6" style="enable-background:new 0 0 197.6 197.6;" xml:space="preserve"> <style type="text/css"> .st0{fill:none;stroke:#FFFFFF;stroke-width:5;stroke-miterlimit:10;} .st1{fill:url(#XMLID_149_);} .st2{fill:url(#SVGID_1_);} .st3{fill:url(#SVGID_2_);} .st4{fill:url(#SVGID_3_);} .st5{fill:url(#SVGID_4_);} .st6{fill:url(#SVGID_5_);} .st7{clip-path:url(#XMLID_150_);fill:url(#XMLID_151_);} .st8{fill:#FFFFFF;} .st9{fill:url(#SVGID_6_);} .st10{fill:url(#SVGID_7_);} .st11{fill:url(#SVGID_8_);} .st12{fill:url(#SVGID_9_);} .st13{fill:url(#SVGID_10_);} .st14{fill:url(#SVGID_11_);} .st15{fill:url(#SVGID_12_);} </style> <rect x="31.2" y="31.7" transform="matrix(0.7071 0.7071 -0.7071 0.7071 98.773 -40.944)" class="st0" width="135.3" height="134.2"></rect> <linearGradient id="XMLID_149_" gradientUnits="userSpaceOnUse" x1="43.3798" y1="41.5822" x2="35.9793" y2="41.3429"> <stop offset="0" style="stop-color:#37DEF3"></stop> <stop offset="0.123" style="stop-color:#36D5F4"></stop> <stop offset="0.3276" style="stop-color:#33BBF6"></stop> <stop offset="0.5868" style="stop-color:#2E92FA"></stop> <stop offset="0.8" style="stop-color:#2A6BFE"></stop> <stop offset="0.9173" style="stop-color:#5B65E8"></stop> <stop offset="1" style="stop-color:#8060D8"></stop> </linearGradient> <path id="XMLID_2_" class="st1" d="M80.7,68c0,0-2.5,0.4-6.5-0.3c-4-0.7-9.6-2.6-15-7.2c-4-3.4-8.1-7.9-11.2-13.1 c-0.8-1.3-1.4-2.7-2.1-4l-0.8-2.1l-0.4-1l-0.1-0.3l-0.1-0.3l0-0.1l0-0.1L44.3,39c-0.2-0.6-0.3-1.3-0.5-1.9l-0.1-0.5L43.6,36 c-0.1-0.4-0.1-0.8-0.2-1.2c-0.3-1.5-0.1-3-0.1-4.3c0.3-2.8,1.4-5.4,2.8-7.3c1.4-2,3.2-3.4,4.8-4.3c1.6-0.9,3-1.5,3.9-1.8 c1-0.3,1.5-0.4,1.5-0.4s-0.5,0.3-1.2,0.8c-0.7,0.6-1.7,1.5-2.6,2.7c-0.9,1.2-1.8,2.7-2.2,4.5c-0.4,1.7-0.3,3.7,0.2,5.6 c0.4,1,0.7,2,1.2,2.9l0.3,0.7l0.2,0.3l0.3,0.4c0.4,0.6,0.7,1.1,1.1,1.7l0.3,0.4l0.1,0.1l0,0.1c0-0.1,0.1,0.2-0.1-0.2l0,0l0,0 l0.1,0.2l0.6,0.7l1.1,1.5c0.9,0.9,1.7,1.9,2.6,2.8c3.6,3.7,7.7,7.1,11.2,10.1c4.8,4.1,7.6,7.9,9.1,10.9C80.3,65.9,80.7,68,80.7,68z"></path> <linearGradient id="SVGID_1_" gradientUnits="userSpaceOnUse" x1="140.6723" y1="42.4701" x2="119.4048" y2="42.2635"> <stop offset="0" style="stop-color:#37DEF3"></stop> <stop offset="0.123" style="stop-color:#36D5F4"></stop> <stop offset="0.3276" style="stop-color:#33BBF6"></stop> <stop offset="0.5868" style="stop-color:#2E92FA"></stop> <stop offset="0.8" style="stop-color:#2A6BFE"></stop> <stop offset="0.9173" style="stop-color:#5B65E8"></stop> <stop offset="1" style="stop-color:#8060D8"></stop> </linearGradient> <path class="st2" d="M115.3,68c0,0,0.3-2,1.6-5c1.4-3,3.9-6.8,8.3-10.9c3.3-3,7.1-6.5,10.4-10.2c0.8-0.9,1.6-1.9,2.4-2.8l1.1-1.5 l0.5-0.7l0,0l0,0c-0.2,0.4,0,0.1-0.1,0.2l0-0.1l0.1-0.1l0.1-0.2l0.3-0.4c0.3-0.6,0.7-1.1,1-1.7c0.2-0.3,0.2-0.5,0.4-0.7l0.3-0.7 c0.5-0.9,0.8-1.9,1.1-2.9c0.5-1.9,0.6-3.8,0.3-5.6c-0.3-1.7-1.1-3.3-1.9-4.5c-0.8-1.2-1.7-2.1-2.4-2.7c-0.7-0.6-1.1-0.9-1.1-0.9 s0.5,0.1,1.5,0.4c0.9,0.3,2.3,0.9,3.8,1.9c1.5,1,3.2,2.4,4.5,4.4c1.3,2,2.3,4.4,2.7,7.1c0.1,1.3,0.2,2.7,0,4.2l-0.1,1.1 c0,0.4-0.1,0.8-0.2,1.1c-0.1,0.6-0.3,1.2-0.4,1.9l-0.1,0.5l-0.1,0.2l0,0.1l0,0.1c0,0.1,0.1-0.2-0.1,0.2l0,0l0,0l-0.4,1l-0.7,2.1 c-0.6,1.3-1.2,2.7-1.9,4c-2.8,5.2-6.5,9.7-10.3,13.2c-5.1,4.7-10.5,6.7-14.4,7.5C117.8,68.3,115.3,68,115.3,68z"></path> <linearGradient id="SVGID_2_" gradientUnits="userSpaceOnUse" x1="98.6668" y1="15.3259" x2="98.6668" y2="178.7713"> <stop offset="0" style="stop-color:#37DEF3"></stop> <stop offset="0.123" style="stop-color:#36D5F4"></stop> <stop offset="0.3276" style="stop-color:#33BBF6"></stop> <stop offset="0.5868" style="stop-color:#2E92FA"></stop> <stop offset="0.8" style="stop-color:#2A6BFE"></stop> <stop offset="0.9173" style="stop-color:#5B65E8"></stop> <stop offset="1" style="stop-color:#8060D8"></stop> </linearGradient> <path class="st3" d="M153,146.1l0.2,7l3.5-13c1.7-3.3,2.3,3,2.3,3s0.6-7.3,2.3-10.9c1.7-3.6,2.2,2.9,2.2,2.9s2-12.4,2.8-16 c0.9-3.5,2.2,3.3,2.2,3.3s1-8.4-0.3-12.2c-1.3-3.8-1.3-5-1.3-5s0.1,2.3,2.8,1.8c2.7-0.5,3.9-2.1,3.9-2.1s-3.7,2-4.7-3.3 c-1-5.3-0.2-7.1-0.2-7.1l1.4,5.9c0,0,1.5-3.7-1.2-9.3c-2.7-5.7-2.7-5.7-2.7-5.7s-1.1-1.7,0.6-1.9c1.7-0.1,3.5,3.9,3.5,3.9 s-1.4-4.5-3.8-8.5c-2.4-4-1-3.8,0.2-2.8s3.5,1,3.5,1s-3-1.2-4.8-3.7c-1.8-2.5-0.1-3.1,0.7-5.7c0.7-2.2-1.2-5.8-1.2-5.8 s-0.7,7.7-2.7,6.2c-2-1.6-3.2-2.2-1.7-3.5c1.5-1.3,1.8-2.2,1.8-2.2s-5.8,2.1-5-0.6c0.8-2.7,1.5-3.4,1.5-3.4s-2.3,2-3.6,0.3 c-1.2-1.7,4.6-4.7,4.6-4.7s-3.5,2.5-6.8-1.5c-3.3-4-3.3-3-3.3-3s3.2-1.3,4.7-2s1.5-0.7,1.5-0.7s-5.8,0.5-9.8-1.8s1.7-3.7,2.7-3.5 s1,0.2,1,0.2s-8.5-2-10.8-2c-2.3,0,3.2-2.8,4.3-3.2c1.3-0.4-5.3,0.4-9.3,0.5c-4.1,0.1,1-2.6,1.8-2.8c1.8-0.6-2.5,0.3-6.2,1.2 c-1,0.2-1.9-1.2-0.6-2.4c1.5-1.4,6.1-1.2,6.1-1.2s-5.1-1.4-7.2,0.2c-2.1,1.6-3.8,3-5.9,1.9c-4.7-4.1,7.8-5.9,7.8-5.9 s-9.9-0.1-12.5,1.8c-2.6,1.9-2.6,1.9-2.6,1.9s-1.2-0.6,0.8-2.7c2.2-2.4-0.7-4-0.7-4s0.5,1.8-0.2,3.3c-0.8,1.7-2.8,3.1-3.8,1.5 l-0.3-5l-1.6,5c0,0,0.1,1.3-2.4-1.5s-2.5-3.7-2.5-3.7s0,3.1,0.7,4.2c0.7,1.1,1.7,2.3-3.8-1.3c-5.5-3.6-6.8-6.7-6.8-6.7 s0.5,5.2,2.3,6.5c1.8,1.3,1.8,1.3,1.8,1.3s-8.5-1-9.7-6.2s1-7.7,1-7.7s-7.8,3-6.7,10.3s3.5,8,3.5,8s-4-1.5-5.8-4.8 c-1.8-3.3-2.8-5.5-2.8-5.5s2.1,7.3,2.1,9.3c0,1.6-1.1,1.5-1.1,1.5s-8.1,1.8-7.8-4.5c0.1-2.5,1.9-5.5,1.9-5.5l-4.9,5 c-3,4.3-1.5,6.7-1.5,6.7s-0.3,1.8-3.3-2.3c-3-4.2-3.7-5-3.7-5s1,5.6,2,7.7c1,2.1,1.8,3.3,1.8,3.3s-1.6,0-3.8-2.9s-2.2-2.8-2.2-2.8 s0,2.7,1.3,4.3c1.3,1.7,1.3,1.7,1.3,1.7s-8-6.5-14.8-0.8c-6.8,5.7-6.8,5.7-6.8,5.7s4.4-2.7,8-4.5c4.5-2.3-5.5,3.2-8,6.7 s-2.5,3.5-2.5,3.5s4-4.2,7.7-5.7c3.7-1.5-4.8,2.5-6.7,7.8S35,57.2,35,57.2s4.8-7,8.2-8.7c3.3-1.7-1.5,4.2-4.5,9.3S32,70.2,32,70.2 l6.6-6.6c0,0-2.1,5.7-4.1,8.2c-2.1,2.5-6.2,5-6.2,5s4.2,0.5,2.7,1.5c-2.3,1.5-5.5,11.2-5.5,11.2s5.2-8.9,5.2-4.8 c0,5.6-9.6,16.8-2.2,9.3c0.7-0.7-4.7,10-4.7,10s6.3-6.7,3-1.2c-1.7,2.8-1,7.2-1,7.2s1.2-2.6,1.6-4.2c0.5-2.3,2.7-4.2,2.2-1.2 c-1.1,5.4-1.7,4.6-2.7,8.7c-1.6,6.2-1,12.7-1,12.7s2.9-10.7,3.8-7c0.8,3.7,0.6,16.9,0.6,16.9s5.3-7.5,5.4-1.9 c0.1,4.6,1.6,14.8,1.6,14.8s1.5-7.3,2.8-5.6l3.3,13c0,0,1.3-10.4,3-2c0.8,4.2,3.3,3.8,3.3,3.8s-2.7-5,0.3-4.5 c3,0.5,7.2,11.3,7.2,11.3s1.4-5.9,3.5-4.6c0,0-1.4,2.6,2,6.6c1.5,1.8,3.1,3.4,3.1,3.4s-5.2-12.2,6.7-3c4.6,3.6,7.7,6.8,7.7,6.8 l-0.1-4.4c7.3,1.1,11,6.9,11,6.9s-0.3-8,2.5-5.5l5.5,9.5c0,0,1.2-7.3,4-7l2,5.2c0,0,3.2-8.5,5-7.7v4c0,0,3-5.6,6.8-6.8 c3.8-1.2,3.4,3.8,3.4,3.8s3.1-2.3,5.8-5.3c6.7-7.4,2.2,2.3,2.2,2.3s5.2-3.2,7.2-6c4.5-6.3,3.2,3,3.2,3l6.4-10.8 c2.5,0,1.1,5.6,1.6,5.6s4.2-13.3,6.5-14.6"></path> <linearGradient id="SVGID_3_" gradientUnits="userSpaceOnUse" x1="45.9197" y1="115.7113" x2="45.9197" y2="107.7311"> <stop offset="0" style="stop-color:#001D54"></stop> <stop offset="0.1137" style="stop-color:#051E5D"></stop> <stop offset="0.3029" style="stop-color:#112177"></stop> <stop offset="0.5442" style="stop-color:#2627A0"></stop> <stop offset="0.8252" style="stop-color:#422ED9"></stop> <stop offset="0.9944" style="stop-color:#5533FF"></stop> </linearGradient> <path class="st4" d="M49.8,111.7c-0.2,0.1-0.5-0.5-1.2-1.2c-0.4-0.3-0.8-0.6-1.4-0.6c-0.3,0-0.6,0-0.9,0.1c-0.2,0-0.8,0.3-1,0.4 c-1.3,0.7-2.1,1.7-2.5,2.7c-0.4,0.9-0.4,1.6-0.6,1.6c-0.2,0-0.5-0.7-0.4-1.9c0.1-0.6,0.3-1.3,0.8-2c0.5-0.7,1.2-1.3,2-1.7l0.2-0.1 l0,0l0.1,0l0.1,0l0.3-0.1c0.2-0.1,0.4-0.1,0.6-0.2c0.5-0.1,0.9-0.1,1.4,0c0.9,0.1,1.5,0.7,1.9,1.2C50,110.9,50,111.7,49.8,111.7z"></path> <linearGradient id="SVGID_4_" gradientUnits="userSpaceOnUse" x1="148.0984" y1="113.3788" x2="148.0984" y2="104.6347"> <stop offset="0" style="stop-color:#001D54"></stop> <stop offset="0.1137" style="stop-color:#051E5D"></stop> <stop offset="0.3029" style="stop-color:#112177"></stop> <stop offset="0.5442" style="stop-color:#2627A0"></stop> <stop offset="0.8252" style="stop-color:#422ED9"></stop> <stop offset="0.9944" style="stop-color:#5533FF"></stop> </linearGradient> <path class="st5" d="M143.8,110.7c-0.2,0-0.2-0.9,0.6-1.9c0.4-0.5,1.1-1,2-1.1c0.9-0.1,1.9,0.1,2.7,0.5c0.4,0.2,0.8,0.5,1.2,0.7 c0.3,0.3,0.7,0.6,1,0.9c0.2,0.4,0.5,0.7,0.6,1c0.1,0.4,0.3,0.7,0.3,1c0.3,1.2,0,2-0.2,2c-0.2,0-0.3-0.7-0.7-1.6 c-0.4-0.9-1.4-2-2.8-2.7c-0.7-0.4-1.4-0.5-2-0.5c-0.6,0-1.1,0.3-1.5,0.6C144.3,110.2,144,110.8,143.8,110.7z"></path> <linearGradient id="SVGID_5_" gradientUnits="userSpaceOnUse" x1="96.8594" y1="118.4069" x2="96.8594" y2="152.7173"> <stop offset="0" style="stop-color:#001D54"></stop> <stop offset="0.1137" style="stop-color:#051E5D"></stop> <stop offset="0.3029" style="stop-color:#112177"></stop> <stop offset="0.5442" style="stop-color:#2627A0"></stop> <stop offset="0.8252" style="stop-color:#422ED9"></stop> <stop offset="0.9944" style="stop-color:#5533FF"></stop> </linearGradient> <path class="st6" d="M48.7,109.1c0,0,7,10.5,46.7,11.1c28.3,0.4,49.6-11.8,49.6-11.8s-8.3,41.9-47.6,41.9 C58.7,150.2,48.7,109.1,48.7,109.1z"></path> <g id="XMLID_1_"> <defs> <path id="XMLID_146_" d="M48.7,109.1c0,0,7,10.5,46.7,11.1c28.3,0.4,49.6-11.8,49.6-11.8s-8.3,41.9-47.6,41.9 C58.7,150.2,48.7,109.1,48.7,109.1z"></path> </defs> <clipPath id="XMLID_150_"> <use xlink:href="#XMLID_146_" style="overflow:visible;"></use> </clipPath> <linearGradient id="XMLID_151_" gradientUnits="userSpaceOnUse" x1="99.2421" y1="150.963" x2="99.2421" y2="124.9761"> <stop offset="0" style="stop-color:#37DEF3"></stop> <stop offset="0.123" style="stop-color:#36D5F4"></stop> <stop offset="0.3276" style="stop-color:#33BBF6"></stop> <stop offset="0.5868" style="stop-color:#2E92FA"></stop> <stop offset="0.8" style="stop-color:#2A6BFE"></stop> <stop offset="0.9173" style="stop-color:#5B65E8"></stop> <stop offset="1" style="stop-color:#8060D8"></stop> </linearGradient> <path id="XMLID_148_" class="st7" d="M68.8,141.9c0,0,4.5-5.6,14.5-6.6c10-1,13.5,2.4,22.1,2.2c8.6-0.2,14.1-6.7,23-0.6 c2.3,1.5,0.6,0.4,0.6,0.4s-10.4,13.8-32,13.8C79.8,151.2,68.8,141.9,68.8,141.9z"></path> </g> <path class="st8" d="M61.3,133.5c0,0,11.1,17,36.3,17s38-20.8,38-20.8l-2.7-3.7c-2.4,1.9-0.8,8.3-0.8,8.3s-2.6-3.1-4.9-0.8 c-2.4,2.3-0.1,5.8-0.1,5.8s-1.7-2.9-4.2-1.4c-2.5,1.5-1.4,5.6-1.4,5.6s-1.7-4.4-4.8-2.7c-2.7,1.4-1.3,4.9-1.3,4.9s-1.5-3-3.6-2.6 c-2.1,0.4-1.9,4.8-1.9,4.8s-0.4-4.3-4.1-3.3c-3.2,0.8-2.5,4.8-2.5,4.8s-0.5-3.7-3-3.7c-3.9,0-3.9,4.1-3.9,4.1s-0.1-3.7-3.8-4.4 s-3.4,3.7-3.4,3.7s-0.6-4.4-3-4.5c-2.4-0.1-3.6,3.3-3.6,3.3s0.5-3-1.5-4.3c-2-1.3-3.6,1.8-3.6,1.8s-0.6-4.1-2.6-5 c-2-0.8-3.9,2.1-3.9,2.1s1-3.7-1.1-5.4c-2.1-1.6-3.9,1.2-3.9,1.2s0.6-7.5-1.3-9.3L61.3,133.5z"></path> <path class="st8" d="M63.8,116.5c0,0-1.3,3.2,1.7,3.9c3,0.7,3.2-2.3,3.2-2.3s-0.3,3.9,3.6,4.5c3.9,0.6,3.3-3,3.3-3s-1,3.9,2.6,4.5 c3.6,0.7,5.1-3.6,5.1-3.6s-0.4,3.7,4.3,4.3c4.8,0.5,3.4-3.9,3.4-3.9s0,3.9,3.4,3.9c4.6,0,4.6-4.1,4.6-4.1s-0.1,4.3,4.7,4.1 c4.8-0.2,3.4-4.1,3.4-4.1s0.1,3.7,5.2,3.1c5.1-0.7,2.5-4.8,2.5-4.8s1.2,4.1,5.4,2.9c4.3-1.2,2.5-4.8,2.5-4.8s0.6,3,4.6,2 c4-1,2.5-4.2,2.5-4.2s-0.2,2.8,4,1.9c3.2-0.7,2-4.2,2-4.2s-17.4,7.3-40.1,7.2C71.3,119.5,63.8,116.5,63.8,116.5z"></path> <circle class="st8" cx="65.8" cy="84.3" r="22.1"></circle> <linearGradient id="SVGID_6_" gradientUnits="userSpaceOnUse" x1="67.9065" y1="97.4666" x2="67.9065" y2="64.2981"> <stop offset="0" style="stop-color:#37DEF3"></stop> <stop offset="0.123" style="stop-color:#36D5F4"></stop> <stop offset="0.3276" style="stop-color:#33BBF6"></stop> <stop offset="0.5868" style="stop-color:#2E92FA"></stop> <stop offset="0.8" style="stop-color:#2A6BFE"></stop> <stop offset="0.9173" style="stop-color:#5B65E8"></stop> <stop offset="1" style="stop-color:#8060D8"></stop> </linearGradient> <circle class="st9" cx="67.9" cy="84.5" r="14.3"></circle> <linearGradient id="SVGID_7_" gradientUnits="userSpaceOnUse" x1="67.6976" y1="84.7479" x2="67.6976" y2="102.9319"> <stop offset="0" style="stop-color:#001D54"></stop> <stop offset="0.1137" style="stop-color:#051E5D"></stop> <stop offset="0.3029" style="stop-color:#112177"></stop> <stop offset="0.5442" style="stop-color:#2627A0"></stop> <stop offset="0.8252" style="stop-color:#422ED9"></stop> <stop offset="0.9944" style="stop-color:#5533FF"></stop> </linearGradient> <circle class="st10" cx="67.7" cy="84.7" r="9.1"></circle> <circle class="st8" cx="73.2" cy="79.3" r="3.6"></circle> <circle class="st8" cx="76.8" cy="88" r="2.1"></circle> <circle class="st8" cx="135" cy="83.1" r="21.9"></circle> <linearGradient id="SVGID_8_" gradientUnits="userSpaceOnUse" x1="132.377" y1="97.4133" x2="132.377" y2="62.8439"> <stop offset="0" style="stop-color:#37DEF3"></stop> <stop offset="0.123" style="stop-color:#36D5F4"></stop> <stop offset="0.3276" style="stop-color:#33BBF6"></stop> <stop offset="0.5868" style="stop-color:#2E92FA"></stop> <stop offset="0.8" style="stop-color:#2A6BFE"></stop> <stop offset="0.9173" style="stop-color:#5B65E8"></stop> <stop offset="1" style="stop-color:#8060D8"></stop> </linearGradient> <circle class="st11" cx="132.4" cy="83.4" r="14.2"></circle> <linearGradient id="SVGID_9_" gradientUnits="userSpaceOnUse" x1="132.17" y1="83.6163" x2="132.17" y2="101.6558"> <stop offset="0" style="stop-color:#001D54"></stop> <stop offset="0.1137" style="stop-color:#051E5D"></stop> <stop offset="0.3029" style="stop-color:#112177"></stop> <stop offset="0.5442" style="stop-color:#2627A0"></stop> <stop offset="0.8252" style="stop-color:#422ED9"></stop> <stop offset="0.9944" style="stop-color:#5533FF"></stop> </linearGradient> <circle class="st12" cx="132.2" cy="83.6" r="9"></circle> <circle class="st8" cx="137.6" cy="78.2" r="3.6"></circle> <circle class="st8" cx="141.3" cy="86.1" r="1.9"></circle> <linearGradient id="SVGID_10_" gradientUnits="userSpaceOnUse" x1="99.6163" y1="83.8367" x2="99.6163" y2="118.7197"> <stop offset="0" style="stop-color:#001D54"></stop> <stop offset="0.1137" style="stop-color:#051E5D"></stop> <stop offset="0.3029" style="stop-color:#112177"></stop> <stop offset="0.5442" style="stop-color:#2627A0"></stop> <stop offset="0.8252" style="stop-color:#422ED9"></stop> <stop offset="0.9944" style="stop-color:#5533FF"></stop> </linearGradient> <path class="st13" d="M150.6,60.4c-13.9-0.9-25-0.6-35.7,3c-10.7,3.7-14.4,3.8-16.8,3.8c-2.4,0-3.7-0.5-12.6-3.3 c-8.9-2.8-17.5-4.5-35.1-4c-17.5,0.6-24,3-24,3l0.8,8.3c0,0,4.5,1.3,5.2,6.9c0.6,5.6,1.1,17.5,8.3,23.3c7.1,5.8,12.2,7.8,28.3,5.5 c16.1-2.3,21.9-18.6,23.4-23.2c1.5-4.6,2.3-9.2,6.6-9c4.3,0.1,5.5,1.8,7.8,9c2.3,7.2,7.1,17.8,17.8,21.4c10.7,3.7,25.3,4.4,33.5-2.8 c8.3-7.2,7-18.7,8.9-24.8c1.9-6.1,4.6-6,4.6-6l1.1-8.8C172.7,62.8,164.5,61.3,150.6,60.4z M87.2,81C85.7,91.6,80.5,102,67,104.6 c-13.5,2.5-23.6-3.3-27.1-10.9c-3.4-7.6-5.1-21.1,1.4-25.8c6.5-4.7,19.6-3.8,19.6-3.8s6,0,14.1,1.3C83.2,66.6,88.8,70.3,87.2,81z M156.4,97.9c-5.7,6.7-14.9,8.6-26.6,5.7c-11.7-2.9-15-11.7-17-19c-2-7.3-1.4-11.6,3.2-15.9c4.6-4.3,18.8-4.7,18.8-4.7 s3.4-0.1,9.5,0c6.1,0.1,11.9,1.5,16,6.8C164.4,76.1,162.1,91.1,156.4,97.9z"></path> <linearGradient id="SVGID_11_" gradientUnits="userSpaceOnUse" x1="139.1738" y1="58.3737" x2="139.1738" y2="40.0237"> <stop offset="0" style="stop-color:#37DEF3"></stop> <stop offset="0.123" style="stop-color:#36D5F4"></stop> <stop offset="0.3276" style="stop-color:#33BBF6"></stop> <stop offset="0.5868" style="stop-color:#2E92FA"></stop> <stop offset="0.8" style="stop-color:#2A6BFE"></stop> <stop offset="0.9173" style="stop-color:#5B65E8"></stop> <stop offset="1" style="stop-color:#8060D8"></stop> </linearGradient> <path class="st14" d="M129.1,49.1c-0.1,0,0-0.4,0.5-0.9c0.4-0.5,1.2-1.1,2.4-1.6c2.3-1,6-1.1,9.5,0.3c3.4,1.3,6,3.7,7,5.8 c0.5,1,0.8,2,0.8,2.6c0,0.6,0,0.9-0.1,1c-0.1,0-0.3-0.3-0.4-0.9c-0.2-0.6-0.6-1.3-1.2-2.2c-1.2-1.7-3.5-3.7-6.7-5 c-1.5-0.6-3.2-1-4.6-1c-1.5-0.1-2.8,0.1-3.9,0.4C130.2,48.1,129.3,49.2,129.1,49.1z"></path> <linearGradient id="SVGID_12_" gradientUnits="userSpaceOnUse" x1="-226.8261" y1="59.0394" x2="-226.8261" y2="40.6894" gradientTransform="matrix(-1 0 0 1 -169.6526 0)"> <stop offset="0" style="stop-color:#37DEF3"></stop> <stop offset="0.123" style="stop-color:#36D5F4"></stop> <stop offset="0.3276" style="stop-color:#33BBF6"></stop> <stop offset="0.5868" style="stop-color:#2E92FA"></stop> <stop offset="0.8" style="stop-color:#2A6BFE"></stop> <stop offset="0.9173" style="stop-color:#5B65E8"></stop> <stop offset="1" style="stop-color:#8060D8"></stop> </linearGradient> <path class="st15" d="M67.2,49.1c0.1,0,0-0.4-0.5-0.9c-0.4-0.5-1.2-1.1-2.4-1.6c-2.3-1-6-1.1-9.5,0.3c-3.4,1.3-6,3.7-7,5.8 c-0.5,1-0.8,2-0.8,2.6c0,0.6,0,0.9,0.1,1c0.1,0,0.3-0.3,0.4-0.9c0.2-0.6,0.6-1.3,1.2-2.2c1.2-1.7,3.5-3.7,6.7-5c1.5-0.6,3.2-1,4.6-1 c1.5-0.1,2.8,0.1,3.9,0.4C66.1,48.1,67,49.2,67.2,49.1z"></path> </svg> 